<?xml version="1.0" encoding="UTF-8"?>
<svg xmlns="http://www.w3.org/2000/svg" width="740" height="420" viewBox="0 0 740 420" role="img" aria-label="Galaxy map of syun88 public GitHub repositories">
  <rect width="100%" height="100%" rx="16" fill="#070a12"/>
  <g><circle cx="679" cy="124" r="0.9" fill="#e8edf7" opacity="0.13"/><circle cx="340" cy="3" r="1.0" fill="#e8edf7" opacity="0.12"/><circle cx="617" cy="302" r="1.1" fill="#e8edf7" opacity="0.15"/><circle cx="278" cy="181" r="1.2" fill="#e8edf7" opacity="0.14"/><circle cx="555" cy="188" r="0.5" fill="#e8edf7" opacity="0.54"/><circle cx="216" cy="67" r="0.6" fill="#e8edf7" opacity="0.53"/><circle cx="493" cy="366" r="0.7" fill="#e8edf7" opacity="0.56"/><circle cx="154" cy="245" r="0.8" fill="#e8edf7" opacity="0.55"/><circle cx="187" cy="160" r="1.3" fill="#e8edf7" opacity="0.50"/><circle cx="588" cy="39" r="1.4" fill="#e8edf7" opacity="0.49"/><circle cx="24" cy="249" r="1.4" fill="#e8edf7" opacity="0.23"/><circle cx="363" cy="370" r="1.3" fill="#e8edf7" opacity="0.24"/><circle cx="702" cy="71" r="0.4" fill="#e8edf7" opacity="0.21"/><circle cx="301" cy="192" r="1.5" fill="#e8edf7" opacity="0.22"/><circle cx="640" cy="313" r="0.6" fill="#e8edf7" opacity="0.19"/><circle cx="239" cy="14" r="0.5" fill="#e8edf7" opacity="0.20"/><circle cx="578" cy="135" r="0.8" fill="#e8edf7" opacity="0.17"/><circle cx="177" cy="256" r="0.7" fill="#e8edf7" opacity="0.18"/><circle cx="272" cy="377" r="0.6" fill="#e8edf7" opacity="0.31"/><circle cx="611" cy="78" r="0.5" fill="#e8edf7" opacity="0.32"/><circle cx="435" cy="386" r="0.9" fill="#e8edf7" opacity="0.50"/><circle cx="96" cy="265" r="1.0" fill="#e8edf7" opacity="0.49"/><circle cx="373" cy="208" r="1.1" fill="#e8edf7" opacity="0.48"/><circle cx="34" cy="87" r="1.2" fill="#e8edf7" opacity="0.47"/><circle cx="311" cy="322" r="0.5" fill="#e8edf7" opacity="0.46"/><circle cx="712" cy="201" r="0.6" fill="#e8edf7" opacity="0.45"/><circle cx="249" cy="144" r="0.7" fill="#e8edf7" opacity="0.44"/><circle cx="650" cy="23" r="0.8" fill="#e8edf7" opacity="0.43"/><circle cx="187" cy="258" r="1.3" fill="#e8edf7" opacity="0.42"/><circle cx="588" cy="137" r="1.4" fill="#e8edf7" opacity="0.41"/><circle cx="638" cy="391" r="1.2" fill="#e8edf7" opacity="0.34"/><circle cx="237" cy="92" r="1.1" fill="#e8edf7" opacity="0.35"/><circle cx="700" cy="149" r="1.0" fill="#e8edf7" opacity="0.36"/><circle cx="299" cy="270" r="0.9" fill="#e8edf7" opacity="0.37"/><circle cx="22" cy="35" r="0.8" fill="#e8edf7" opacity="0.30"/><circle cx="361" cy="156" r="0.7" fill="#e8edf7" opacity="0.31"/><circle cx="84" cy="213" r="0.6" fill="#e8edf7" opacity="0.32"/><circle cx="423" cy="334" r="0.5" fill="#e8edf7" opacity="0.33"/><circle cx="146" cy="263" r="0.4" fill="#e8edf7" opacity="0.26"/><circle cx="485" cy="384" r="1.5" fill="#e8edf7" opacity="0.27"/><circle cx="309" cy="248" r="1.1" fill="#e8edf7" opacity="0.14"/><circle cx="710" cy="127" r="1.2" fill="#e8edf7" opacity="0.13"/><circle cx="371" cy="6" r="0.9" fill="#e8edf7" opacity="0.16"/><circle cx="32" cy="305" r="1.0" fill="#e8edf7" opacity="0.15"/><circle cx="433" cy="184" r="1.5" fill="#e8edf7" opacity="0.55"/><circle cx="94" cy="63" r="0.4" fill="#e8edf7" opacity="0.54"/><circle cx="495" cy="362" r="1.3" fill="#e8edf7" opacity="0.12"/><circle cx="156" cy="241" r="1.4" fill="#e8edf7" opacity="0.56"/><circle cx="61" cy="120" r="1.5" fill="#e8edf7" opacity="0.51"/><circle cx="462" cy="419" r="0.4" fill="#e8edf7" opacity="0.50"/><circle cx="660" cy="37" r="0.6" fill="#e8edf7" opacity="0.43"/><circle cx="259" cy="158" r="0.5" fill="#e8edf7" opacity="0.44"/><circle cx="598" cy="279" r="0.8" fill="#e8edf7" opacity="0.41"/><circle cx="197" cy="400" r="0.7" fill="#e8edf7" opacity="0.42"/><circle cx="44" cy="393" r="1.4" fill="#e8edf7" opacity="0.47"/><circle cx="383" cy="94" r="1.3" fill="#e8edf7" opacity="0.48"/><circle cx="722" cy="215" r="0.4" fill="#e8edf7" opacity="0.45"/><circle cx="321" cy="336" r="1.5" fill="#e8edf7" opacity="0.46"/><circle cx="412" cy="329" r="1.0" fill="#e8edf7" opacity="0.35"/><circle cx="11" cy="30" r="0.9" fill="#e8edf7" opacity="0.36"/><circle cx="347" cy="246" r="0.5" fill="#e8edf7" opacity="0.52"/><circle cx="8" cy="125" r="0.6" fill="#e8edf7" opacity="0.51"/><circle cx="285" cy="68" r="0.7" fill="#e8edf7" opacity="0.50"/><circle cx="686" cy="367" r="0.8" fill="#e8edf7" opacity="0.49"/><circle cx="471" cy="310" r="0.9" fill="#e8edf7" opacity="0.56"/><circle cx="132" cy="189" r="1.0" fill="#e8edf7" opacity="0.55"/><circle cx="409" cy="132" r="1.1" fill="#e8edf7" opacity="0.54"/><circle cx="70" cy="11" r="1.2" fill="#e8edf7" opacity="0.53"/><circle cx="595" cy="118" r="1.3" fill="#e8edf7" opacity="0.15"/><circle cx="256" cy="417" r="1.4" fill="#e8edf7" opacity="0.14"/><circle cx="698" cy="35" r="1.2" fill="#e8edf7" opacity="0.36"/><circle cx="297" cy="156" r="1.1" fill="#e8edf7" opacity="0.37"/><circle cx="20" cy="213" r="1.0" fill="#e8edf7" opacity="0.38"/><circle cx="359" cy="334" r="0.9" fill="#e8edf7" opacity="0.39"/><circle cx="574" cy="391" r="0.4" fill="#e8edf7" opacity="0.40"/><circle cx="173" cy="92" r="1.5" fill="#e8edf7" opacity="0.41"/><circle cx="636" cy="149" r="1.4" fill="#e8edf7" opacity="0.42"/><circle cx="235" cy="270" r="1.3" fill="#e8edf7" opacity="0.43"/><circle cx="206" cy="163" r="0.8" fill="#e8edf7" opacity="0.44"/><circle cx="545" cy="284" r="0.7" fill="#e8edf7" opacity="0.45"/></g>
  <g><line x1="370.0" y1="210.0" x2="370.0" y2="92.4" stroke="#344054" stroke-width="1" opacity="0.65"/><line x1="370.0" y1="92.4" x2="319.4" y2="40.8" stroke="#344054" stroke-width="1" opacity="0.65"/><line x1="370.0" y1="92.4" x2="336.5" y2="43.8" stroke="#344054" stroke-width="1" opacity="0.65"/><line x1="370.0" y1="92.4" x2="345.4" y2="49.4" stroke="#344054" stroke-width="1" opacity="0.65"/><line x1="370.0" y1="92.4" x2="347.7" y2="57.6" stroke="#344054" stroke-width="1" opacity="0.65"/><line x1="370.0" y1="92.4" x2="354.0" y2="38.9" stroke="#344054" stroke-width="1" opacity="0.65"/><line x1="370.0" y1="92.4" x2="370.5" y2="50.9" stroke="#344054" stroke-width="1" opacity="0.65"/><line x1="370.0" y1="92.4" x2="375.8" y2="54.7" stroke="#344054" stroke-width="1" opacity="0.65"/><line x1="370.0" y1="92.4" x2="380.1" y2="34.0" stroke="#344054" stroke-width="1" opacity="0.65"/><line x1="370.0" y1="92.4" x2="397.8" y2="39.1" stroke="#344054" stroke-width="1" opacity="0.65"/><line x1="370.0" y1="92.4" x2="402.5" y2="41.8" stroke="#344054" stroke-width="1" opacity="0.65"/><line x1="370.0" y1="92.4" x2="409.7" y2="38.4" stroke="#344054" stroke-width="1" opacity="0.65"/><line x1="370.0" y1="92.4" x2="419.0" y2="62.4" stroke="#344054" stroke-width="1" opacity="0.65"/><line x1="370.0" y1="210.0" x2="439.1" y2="114.9" stroke="#344054" stroke-width="1" opacity="0.65"/><line x1="439.1" y1="114.9" x2="423.2" y2="61.2" stroke="#344054" stroke-width="1" opacity="0.65"/><line x1="439.1" y1="114.9" x2="432.1" y2="66.4" stroke="#344054" stroke-width="1" opacity="0.65"/><line x1="439.1" y1="114.9" x2="450.3" y2="59.8" stroke="#344054" stroke-width="1" opacity="0.65"/><line x1="439.1" y1="114.9" x2="456.4" y2="72.5" stroke="#344054" stroke-width="1" opacity="0.65"/><line x1="439.1" y1="114.9" x2="467.2" y2="77.2" stroke="#344054" stroke-width="1" opacity="0.65"/><line x1="439.1" y1="114.9" x2="474.1" y2="84.2" stroke="#344054" stroke-width="1" opacity="0.65"/><line x1="439.1" y1="114.9" x2="465.2" y2="95.5" stroke="#344054" stroke-width="1" opacity="0.65"/><line x1="439.1" y1="114.9" x2="489.9" y2="82.2" stroke="#344054" stroke-width="1" opacity="0.65"/><line x1="439.1" y1="114.9" x2="494.9" y2="92.7" stroke="#344054" stroke-width="1" opacity="0.65"/><line x1="439.1" y1="114.9" x2="489.7" y2="118.8" stroke="#344054" stroke-width="1" opacity="0.65"/><line x1="370.0" y1="210.0" x2="481.8" y2="173.7" stroke="#344054" stroke-width="1" opacity="0.65"/><line x1="481.8" y1="173.7" x2="507.7" y2="134.0" stroke="#344054" stroke-width="1" opacity="0.65"/><line x1="481.8" y1="173.7" x2="512.5" y2="144.1" stroke="#344054" stroke-width="1" opacity="0.65"/><line x1="481.8" y1="173.7" x2="518.8" y2="162.0" stroke="#344054" stroke-width="1" opacity="0.65"/><line x1="481.8" y1="173.7" x2="535.3" y2="157.6" stroke="#344054" stroke-width="1" opacity="0.65"/><line x1="481.8" y1="173.7" x2="515.0" y2="185.5" stroke="#344054" stroke-width="1" opacity="0.65"/><line x1="481.8" y1="173.7" x2="519.8" y2="187.2" stroke="#344054" stroke-width="1" opacity="0.65"/><line x1="370.0" y1="210.0" x2="481.8" y2="246.3" stroke="#344054" stroke-width="1" opacity="0.65"/><line x1="481.8" y1="246.3" x2="536.5" y2="237.9" stroke="#344054" stroke-width="1" opacity="0.65"/><line x1="481.8" y1="246.3" x2="542.5" y2="252.6" stroke="#344054" stroke-width="1" opacity="0.65"/><line x1="481.8" y1="246.3" x2="522.2" y2="274.9" stroke="#344054" stroke-width="1" opacity="0.65"/><line x1="481.8" y1="246.3" x2="531.0" y2="289.0" stroke="#344054" stroke-width="1" opacity="0.65"/><line x1="370.0" y1="210.0" x2="439.1" y2="305.1" stroke="#344054" stroke-width="1" opacity="0.65"/><line x1="439.1" y1="305.1" x2="474.5" y2="330.7" stroke="#344054" stroke-width="1" opacity="0.65"/><line x1="439.1" y1="305.1" x2="461.4" y2="363.3" stroke="#344054" stroke-width="1" opacity="0.65"/><line x1="370.0" y1="210.0" x2="370.0" y2="327.6" stroke="#344054" stroke-width="1" opacity="0.65"/><line x1="370.0" y1="327.6" x2="375.6" y2="374.9" stroke="#344054" stroke-width="1" opacity="0.65"/><line x1="370.0" y1="210.0" x2="300.9" y2="305.1" stroke="#344054" stroke-width="1" opacity="0.65"/><line x1="300.9" y1="305.1" x2="267.0" y2="347.9" stroke="#344054" stroke-width="1" opacity="0.65"/><line x1="370.0" y1="210.0" x2="258.2" y2="246.3" stroke="#344054" stroke-width="1" opacity="0.65"/><line x1="258.2" y1="246.3" x2="200.2" y2="263.5" stroke="#344054" stroke-width="1" opacity="0.65"/><line x1="370.0" y1="210.0" x2="258.2" y2="173.7" stroke="#344054" stroke-width="1" opacity="0.65"/><line x1="258.2" y1="173.7" x2="230.4" y2="159.2" stroke="#344054" stroke-width="1" opacity="0.65"/><line x1="370.0" y1="210.0" x2="300.9" y2="114.9" stroke="#344054" stroke-width="1" opacity="0.65"/><line x1="300.9" y1="114.9" x2="270.5" y2="61.8" stroke="#344054" stroke-width="1" opacity="0.65"/></g>
  <g><g><circle cx="370" cy="210" r="27" fill="hsl(86 72% 66%)" opacity="0.98"/><circle cx="370" cy="210" r="34" fill="none" stroke="hsl(86 72% 66%)" opacity="0.24"/><text x="370" y="257" text-anchor="middle" fill="#e8edf7" font-size="16" font-weight="700">syun88</text></g><g><circle cx="370" cy="92.39999999999999" r="7" fill="hsl(29 72% 66%)"/><text x="370" y="79.39999999999999" text-anchor="middle" fill="#9aa7bd" font-size="11" font-weight="600">Other Projects</text></g><g><title>syun88</title><circle cx="319.40953274261716" cy="40.764665327480515" r="5.9" fill="hsl(29 72% 66%)" opacity="0.95"/><text x="319.40953274261716" y="58.66466532748051" text-anchor="middle" fill="#e8edf7" font-size="10">syun88</text></g><g><title>cosmos-policy</title><circle cx="336.4838760917561" cy="43.834457295842356" r="4.5" fill="hsl(29 72% 66%)" opacity="0.72"/><text x="336.4838760917561" y="60.334457295842356" text-anchor="middle" fill="#e8edf7" font-size="10">cosmos-policy</text></g><g><title>WorldWarp</title><circle cx="345.42461156451475" cy="49.379576667831486" r="4.5" fill="hsl(29 72% 66%)" opacity="0.72"/><text x="345.42461156451475" y="65.87957666783149" text-anchor="middle" fill="#e8edf7" font-size="10">WorldWarp</text></g><g><title>pixio</title><circle cx="347.7251075860482" cy="57.562864419634025" r="4.5" fill="hsl(29 72% 66%)" opacity="0.72"/><text x="347.7251075860482" y="74.06286441963402" text-anchor="middle" fill="#e8edf7" font-size="10">pixio</text></g><g><title>map-anything</title><circle cx="354.0440525883562" cy="38.945774000064915" r="4.5" fill="hsl(29 72% 66%)" opacity="0.72"/><text x="354.0440525883562" y="55.445774000064915" text-anchor="middle" fill="#e8edf7" font-size="10">map-anything</text></g><g><title>Depth-Anything-3</title><circle cx="370.52750779232616" cy="50.93847470463183" r="4.5" fill="hsl(29 72% 66%)" opacity="0.72"/><text x="370.52750779232616" y="67.43847470463183" text-anchor="middle" fill="#e8edf7" font-size="10">Depth-Anything-3</text></g><g><title>relsim</title><circle cx="375.77514819746756" cy="54.67372510660894" r="4.5" fill="hsl(29 72% 66%)" opacity="0.72"/><text x="375.77514819746756" y="71.17372510660894" text-anchor="middle" fill="#e8edf7" font-size="10">relsim</text></g><g><title>ml-sharp</title><circle cx="380.06153206295795" cy="33.95448904221931" r="4.5" fill="hsl(29 72% 66%)" opacity="0.72"/><text x="380.06153206295795" y="50.45448904221931" text-anchor="middle" fill="#e8edf7" font-size="10">ml-sharp</text></g><g><title>circuit_sparsity</title><circle cx="397.8268627831249" cy="39.109970061770014" r="4.5" fill="hsl(29 72% 66%)" opacity="0.72"/><text x="397.8268627831249" y="55.609970061770014" text-anchor="middle" fill="#e8edf7" font-size="10">circuit_sparsity</text></g><g><title>github-profile-trophy</title><circle cx="402.4957351217536" cy="41.81780554786178" r="4.5" fill="hsl(29 72% 66%)" opacity="0.72"/><text x="402.4957351217536" y="58.31780554786178" text-anchor="middle" fill="#e8edf7" font-size="10">github-profile-trophy</text></g><g><title>NewBie-image-Exp0.1</title><circle cx="409.6648013216264" cy="38.42765880866489" r="4.5" fill="hsl(29 72% 66%)" opacity="0.72"/><text x="409.6648013216264" y="54.92765880866489" text-anchor="middle" fill="#e8edf7" font-size="10">NewBie-image-Exp0.1</text></g><g><title>github-readme-stats</title><circle cx="419.0334216570674" cy="62.43231261132999" r="4.5" fill="hsl(29 72% 66%)" opacity="0.72"/><text x="419.0334216570674" y="78.93231261132999" text-anchor="middle" fill="#e8edf7" font-size="10">github-readme-stats</text></g><g><circle cx="439.1235456695948" cy="114.85960146150617" r="7" fill="hsl(111 72% 66%)"/><text x="439.1235456695948" y="101.85960146150617" text-anchor="middle" fill="#9aa7bd" font-size="11" font-weight="600">Python Projects</text></g><g><title>aimv2-project-for-qiita-article</title><circle cx="423.18007951318225" cy="61.19659823911414" r="6.7" fill="hsl(31 72% 66%)" opacity="0.95"/><text x="423.18007951318225" y="79.91554574012376" text-anchor="middle" fill="#e8edf7" font-size="10">aimv2-project-for-qi…</text></g><g><title>NemoClaw2Robot</title><circle cx="432.0698791536454" cy="66.39880114563158" r="6.7" fill="hsl(31 72% 66%)" opacity="0.95"/><text x="432.0698791536454" y="85.1177486466412" text-anchor="middle" fill="#e8edf7" font-size="10">NemoClaw2Robot</text></g><g><title>DepthLM_Official</title><circle cx="450.2820442331081" cy="59.751548168530945" r="4.5" fill="hsl(31 72% 66%)" opacity="0.72"/><text x="450.2820442331081" y="76.25154816853095" text-anchor="middle" fill="#e8edf7" font-size="10">DepthLM_Official</text></g><g><title>ml-simplefold</title><circle cx="456.36302668384417" cy="72.48072866886756" r="4.5" fill="hsl(31 72% 66%)" opacity="0.72"/><text x="456.36302668384417" y="88.98072866886756" text-anchor="middle" fill="#e8edf7" font-size="10">ml-simplefold</text></g><g><title>ml-starflow</title><circle cx="467.21037820906565" cy="77.20561431939066" r="4.5" fill="hsl(31 72% 66%)" opacity="0.72"/><text x="467.21037820906565" y="93.70561431939066" text-anchor="middle" fill="#e8edf7" font-size="10">ml-starflow</text></g><g><title>ml-l3m</title><circle cx="474.1065880795246" cy="84.19299727582657" r="4.5" fill="hsl(31 72% 66%)" opacity="0.72"/><text x="474.1065880795246" y="100.69299727582657" text-anchor="middle" fill="#e8edf7" font-size="10">ml-l3m</text></g><g><title>DA-2</title><circle cx="465.2347979589472" cy="95.51825451733146" r="4.5" fill="hsl(31 72% 66%)" opacity="0.72"/><text x="465.2347979589472" y="112.01825451733146" text-anchor="middle" fill="#e8edf7" font-size="10">DA-2</text></g><g><title>check_color_count</title><circle cx="489.8753666164421" cy="82.24408925324198" r="4.5" fill="hsl(31 72% 66%)" opacity="0.95"/></g><g><title>four_conect_game_handAI</title><circle cx="494.87825912828595" cy="92.65576282966141" r="4.5" fill="hsl(31 72% 66%)" opacity="0.95"/></g><g><title>Get_distance_MiDaS_python</title><circle cx="489.7200501292281" cy="118.75424184623643" r="4.5" fill="hsl(31 72% 66%)" opacity="0.95"/></g><g><circle cx="481.8442463163101" cy="173.65960146150618" r="7" fill="hsl(335 72% 66%)"/><text x="481.8442463163101" y="160.65960146150618" text-anchor="middle" fill="#9aa7bd" font-size="11" font-weight="600">AI / Machine Learning</text></g><g><title>VLA-from-FastVLM</title><circle cx="507.72698569747575" cy="133.97796660357403" r="9.7" fill="hsl(31 72% 66%)" opacity="0.95"/><text x="507.72698569747575" y="155.65858220897155" text-anchor="middle" fill="#e8edf7" font-size="10">VLA-from-FastVLM</text></g><g><title>G2VLM</title><circle cx="512.4865327881762" cy="144.12088945163276" r="4.5" fill="hsl(31 72% 66%)" opacity="0.72"/><text x="512.4865327881762" y="160.62088945163276" text-anchor="middle" fill="#e8edf7" font-size="10">G2VLM</text></g><g><title>axlearn</title><circle cx="518.7795002788177" cy="161.96765629885147" r="4.5" fill="hsl(335 72% 66%)" opacity="0.72"/><text x="518.7795002788177" y="178.46765629885147" text-anchor="middle" fill="#e8edf7" font-size="10">axlearn</text></g><g><title>ai-tutor</title><circle cx="535.2975859492559" cy="157.58246999802117" r="4.5" fill="hsl(314 72% 66%)" opacity="0.72"/><text x="535.2975859492559" y="174.08246999802117" text-anchor="middle" fill="#e8edf7" font-size="10">ai-tutor</text></g><g><title>AI_PJ_GANE_FRI_WORK</title><circle cx="515.0172879058148" cy="185.53068198167244" r="4.5" fill="hsl(31 72% 66%)" opacity="0.95"/><text x="515.0172879058148" y="202.03068198167244" text-anchor="middle" fill="#e8edf7" font-size="10">AI_PJ_GANE_FRI_WORK</text></g><g><title>TechLibrary</title><circle cx="519.8467518386351" cy="187.2119634990087" r="4.5" fill="hsl(152 72% 66%)" opacity="0.95"/></g><g><circle cx="481.8442463163101" cy="246.34039853849382" r="7" fill="hsl(219 72% 66%)"/><text x="481.8442463163101" y="233.34039853849382" text-anchor="middle" fill="#9aa7bd" font-size="11" font-weight="600">Robotics / ROS 2</text></g><g><title>lerobot_6dof_arm</title><circle cx="536.4904026390801" cy="237.86658411138694" r="5.9" fill="hsl(31 72% 66%)" opacity="0.72"/><text x="536.4904026390801" y="255.76658411138695" text-anchor="middle" fill="#e8edf7" font-size="10">lerobot_6dof_arm</text></g><g><title>lerobot_pj</title><circle cx="542.4926258948029" cy="252.60679840301964" r="5.9" fill="hsl(31 72% 66%)" opacity="0.95"/><text x="542.4926258948029" y="270.5067984030196" text-anchor="middle" fill="#e8edf7" font-size="10">lerobot_pj</text></g><g><title>lerobot-hdf5-bridge</title><circle cx="522.2206165019547" cy="274.90388518235886" r="4.5" fill="hsl(31 72% 66%)" opacity="0.95"/><text x="522.2206165019547" y="291.40388518235886" text-anchor="middle" fill="#e8edf7" font-size="10">lerobot-hdf5-bridge</text></g><g><title>fusion2urdf-ros2-gz</title><circle cx="530.9510938103027" cy="288.99054417730724" r="4.5" fill="hsl(31 72% 66%)" opacity="0.72"/><text x="530.9510938103027" y="305.49054417730724" text-anchor="middle" fill="#e8edf7" font-size="10">fusion2urdf-ros2-gz</text></g><g><circle cx="439.1235456695948" cy="305.14039853849386" r="7" fill="hsl(66 72% 66%)"/><text x="439.1235456695948" y="292.14039853849386" text-anchor="middle" fill="#9aa7bd" font-size="11" font-weight="600">C++ Projects</text></g><g><title>IsaacMetalBridge</title><circle cx="474.54800892090094" cy="330.72306884483686" r="8.1" fill="hsl(240 72% 66%)" opacity="0.95"/><text x="474.54800892090094" y="350.8420163458465" text-anchor="middle" fill="#e8edf7" font-size="10">IsaacMetalBridge</text></g><g><title>mlx</title><circle cx="461.3856653510202" cy="363.27400271576175" r="4.5" fill="hsl(240 72% 66%)" opacity="0.72"/><text x="461.3856653510202" y="379.77400271576175" text-anchor="middle" fill="#e8edf7" font-size="10">mlx</text></g><g><circle cx="370" cy="327.6" r="7" fill="hsl(266 72% 66%)"/><text x="370" y="314.6" text-anchor="middle" fill="#9aa7bd" font-size="11" font-weight="600">Coursework / Learning</text></g><g><title>ROS2_gmapping_learning_python</title><circle cx="375.55534126446605" cy="374.8824392087748" r="4.5" fill="hsl(31 72% 66%)" opacity="0.95"/></g><g><circle cx="300.8764543304052" cy="305.14039853849386" r="7" fill="hsl(278 72% 66%)"/><text x="300.8764543304052" y="292.14039853849386" text-anchor="middle" fill="#9aa7bd" font-size="11" font-weight="600">Hardware / Embedded</text></g><g><title>baumbu_printer_Raspberry_DiscordBot</title><circle cx="266.9915827472537" cy="347.8673297620728" r="4.5" fill="hsl(31 72% 66%)" opacity="0.95"/><text x="266.9915827472537" y="364.3673297620728" text-anchor="middle" fill="#e8edf7" font-size="10">baumbu_printer_Raspb…</text></g><g><circle cx="258.1557536836899" cy="246.34039853849384" r="7" fill="hsl(12 72% 66%)"/><text x="258.1557536836899" y="233.34039853849384" text-anchor="middle" fill="#9aa7bd" font-size="11" font-weight="600">JavaScript Projects</text></g><g><title>learn_english</title><circle cx="200.23718116441086" cy="263.45260492843124" r="4.5" fill="hsl(178 72% 66%)" opacity="0.95"/><text x="200.23718116441086" y="279.95260492843124" text-anchor="middle" fill="#e8edf7" font-size="10">learn_english</text></g><g><circle cx="258.1557536836899" cy="173.6596014615062" r="7" fill="hsl(56 72% 66%)"/><text x="258.1557536836899" y="160.6596014615062" text-anchor="middle" fill="#9aa7bd" font-size="11" font-weight="600">Minecraft Modding</text></g><g><title>minecraft_ros2</title><circle cx="230.37580661037524" cy="159.19780228241427" r="4.5" fill="hsl(56 72% 66%)" opacity="0.72"/><text x="230.37580661037524" y="175.69780228241427" text-anchor="middle" fill="#e8edf7" font-size="10">minecraft_ros2</text></g><g><circle cx="300.8764543304051" cy="114.85960146150619" r="7" fill="hsl(10 72% 66%)"/><text x="300.8764543304051" y="101.85960146150619" text-anchor="middle" fill="#9aa7bd" font-size="11" font-weight="600">Swift Projects</text></g><g><title>watashi-no-karada</title><circle cx="270.48566011184283" cy="61.83404966435663" r="5.9" fill="hsl(248 72% 66%)" opacity="0.95"/><text x="270.48566011184283" y="79.73404966435663" text-anchor="middle" fill="#e8edf7" font-size="10">watashi-no-karada</text></g></g>
  <text x="18" y="403" fill="#9aa7bd" font-size="10">39 public projects · generated 2026-09-07</text>
</svg>